<?xml version="1.0" standalone="no"?>
<!DOCTYPE svg PUBLIC "-//W3C//DTD SVG 20010904//EN"
 "http://www.w3.org/TR/2001/REC-SVG-20010904/DTD/svg10.dtd">
<svg version="1.0" xmlns="http://www.w3.org/2000/svg"
 width="128.000000pt" height="128.000000pt" viewBox="0 0 128.000000 128.000000"
 preserveAspectRatio="xMidYMid meet">

<g transform="translate(0.000000,128.000000) scale(0.100000,-0.100000)"
fill="#000000" stroke="none">
<path d="M62 988 c-63 -285 -63 -282 -36 -286 19 -3 24 13 69 215 26 120 52
228 56 241 l9 22 480 0 480 0 9 -22 c4 -13 30 -121 56 -241 45 -202 50 -218
69 -215 27 4 27 1 -36 286 l-51 232 -527 0 -527 0 -51 -232z"/>
<path d="M270 1040 c0 -16 7 -20 35 -20 28 0 35 4 35 20 0 16 -7 20 -35 20
-28 0 -35 -4 -35 -20z"/>
<path d="M405 1050 c-11 -18 10 -32 41 -28 40 4 38 32 -3 36 -17 2 -34 -2 -38
-8z"/>
<path d="M540 1040 c0 -16 7 -20 35 -20 28 0 35 4 35 20 0 16 -7 20 -35 20
-28 0 -35 -4 -35 -20z"/>
<path d="M670 1040 c0 -16 7 -20 35 -20 28 0 35 4 35 20 0 16 -7 20 -35 20
-28 0 -35 -4 -35 -20z"/>
<path d="M805 1050 c-11 -18 10 -32 41 -28 40 4 38 32 -3 36 -17 2 -34 -2 -38
-8z"/>
<path d="M940 1040 c0 -16 7 -20 35 -20 28 0 35 4 35 20 0 16 -7 20 -35 20
-28 0 -35 -4 -35 -20z"/>
<path d="M227 954 c-4 -4 -7 -16 -7 -26 0 -16 6 -19 33 -16 24 2 32 8 32 23 0
14 -8 21 -25 23 -14 2 -29 0 -33 -4z"/>
<path d="M354 946 c-9 -23 4 -36 37 -36 26 0 30 3 27 23 -4 27 -55 38 -64 13z"/>
<path d="M490 945 c-17 -20 -4 -35 30 -35 16 0 32 5 35 10 9 15 -13 40 -35 40
-10 0 -23 -7 -30 -15z"/>
<path d="M627 954 c-4 -4 -7 -16 -7 -26 0 -16 6 -19 33 -16 24 2 32 8 32 23 0
14 -8 21 -25 23 -14 2 -29 0 -33 -4z"/>
<path d="M754 946 c-9 -23 4 -36 37 -36 26 0 30 3 27 23 -4 27 -55 38 -64 13z"/>
<path d="M890 945 c-17 -20 -4 -35 30 -35 16 0 32 5 35 10 9 15 -13 40 -35 40
-10 0 -23 -7 -30 -15z"/>
<path d="M1027 954 c-4 -4 -7 -16 -7 -26 0 -16 6 -19 33 -16 24 2 32 8 32 23
0 14 -8 21 -25 23 -14 2 -29 0 -33 -4z"/>
<path d="M253 788 c-6 -7 -21 -47 -33 -88 -28 -92 -40 -108 -40 -51 l0 42 -47
-3 -48 -3 -27 -145 c-26 -137 -27 -151 -16 -251 11 -102 10 -107 -15 -184 -24
-70 -25 -81 -12 -94 21 -21 28 -10 60 88 27 83 28 86 16 180 -12 87 -11 107 9
221 13 69 26 129 31 135 5 5 9 -40 9 -107 0 -118 10 -149 35 -115 6 9 33 88
60 177 40 131 52 160 67 160 14 0 17 -6 13 -22 -2 -13 -14 -87 -26 -166 -16
-104 -19 -146 -11 -154 21 -21 38 10 102 177 39 101 68 165 76 165 19 0 19 0
-31 -200 -47 -188 -51 -215 -35 -225 5 -3 40 12 77 34 38 23 69 37 71 31 2 -5
-39 -62 -91 -127 -79 -98 -98 -128 -111 -178 -13 -51 -13 -62 -2 -74 21 -20
33 -6 47 54 10 45 29 75 120 189 60 75 109 142 109 149 0 8 -18 22 -39 32 -40
17 -40 17 -85 -9 -26 -15 -46 -24 -46 -21 0 3 20 87 45 187 26 100 44 187 41
195 -7 17 -100 18 -114 0 -6 -7 -20 -35 -31 -62 l-20 -50 2 60 2 60 -51 3
c-33 2 -55 -2 -61 -10z"/>
<path d="M754 787 c-3 -8 15 -95 41 -195 25 -100 45 -184 45 -187 0 -3 -20 6
-46 21 -45 26 -45 26 -85 9 -21 -10 -39 -24 -39 -32 0 -7 49 -74 109 -149 91
-114 110 -144 120 -189 14 -60 26 -74 47 -54 11 12 11 23 -2 74 -13 50 -32 80
-111 178 -52 65 -93 122 -91 127 2 6 33 -8 71 -31 37 -22 72 -37 77 -34 16 10
12 37 -35 225 -50 200 -50 200 -31 200 8 0 37 -64 76 -165 64 -167 81 -198
102 -177 8 8 5 50 -11 154 -12 79 -24 153 -26 166 -4 16 -1 22 13 22 15 0 27
-29 67 -160 27 -89 54 -168 60 -177 25 -34 35 -3 35 115 0 67 4 112 9 106 5
-5 18 -65 31 -134 20 -114 21 -134 9 -221 -12 -94 -11 -97 16 -180 32 -98 39
-109 60 -88 13 13 12 24 -12 94 -25 77 -26 82 -15 184 11 100 10 114 -16 251
l-27 145 -48 3 -47 3 0 -42 c0 -58 -13 -41 -40 53 -13 43 -29 83 -36 89 -7 5
-34 9 -61 7 l-48 -3 2 -60 2 -60 -20 50 c-11 27 -25 55 -31 62 -14 18 -107 17
-114 0z"/>
<path d="M590 720 c0 -17 7 -20 50 -20 43 0 50 3 50 20 0 17 -7 20 -50 20 -43
0 -50 -3 -50 -20z"/>
</g>
</svg>
